<svg xmlns="http://www.w3.org/2000/svg" viewBox="0 0 432.41 449.64"><defs><style>.cls-1{fill:#f5f5f5;}.cls-2{fill:#ebebeb;}.cls-3{fill:#e0e0e0;}.cls-4{fill:#263238;}.cls-5{fill:#ff725e;}.cls-6{fill:#455a64;}.cls-7{opacity:0.3;}.cls-8{fill:#b5715a;}.cls-9{fill:#884c3b;}.cls-10{fill:#fff;}.cls-11{fill:none;}</style></defs><title>5065069</title><g id="Background_Complete" data-name="Background Complete"><path class="cls-1" d="M139.11,87A22.12,22.12,0,1,1,117,65,22.1,22.1,0,0,1,139.11,87Z" transform="translate(-35.89 -52.36)"/><path class="cls-2" d="M133.84,87A16.85,16.85,0,1,1,117,70.23,16.82,16.82,0,0,1,133.84,87Z" transform="translate(-35.89 -52.36)"/><path class="cls-3" d="M133.84,86.51a10.38,10.38,0,0,1-.45-2,17.8,17.8,0,0,0-1.94-5.17,17.5,17.5,0,0,0-2.24-3.06,16.63,16.63,0,0,0-3.31-2.78,16.91,16.91,0,0,0-2.06-1.12A16.78,16.78,0,0,0,119.08,71a17.23,17.23,0,0,0-2.6-.12,18.48,18.48,0,0,0-2.59.28,16.11,16.11,0,0,0-2.43.67,14.5,14.5,0,0,0-2.23,1,15.07,15.07,0,0,0-2,1.24,16.66,16.66,0,0,0-5.17,6.19,17.54,17.54,0,0,0-1.61,5.27,9.88,9.88,0,0,1-.32,2,5,5,0,0,1-.18-2.09,15.49,15.49,0,0,1,1.28-5.61,16.34,16.34,0,0,1,2-3.48,17.13,17.13,0,0,1,3.26-3.28,17.85,17.85,0,0,1,2.11-1.38A16.64,16.64,0,0,1,111,70.65a17.6,17.6,0,0,1,2.63-.73,17.15,17.15,0,0,1,2.79-.32,17.34,17.34,0,0,1,2.8.14,17.8,17.8,0,0,1,2.67.56,17.5,17.5,0,0,1,2.45.94,16.61,16.61,0,0,1,2.19,1.25A17,17,0,0,1,130,75.55a17.34,17.34,0,0,1,2.23,3.34,15.45,15.45,0,0,1,1.64,5.52A4.75,4.75,0,0,1,133.84,86.51Z" transform="translate(-35.89 -52.36)"/><path class="cls-3" d="M118.9,97.1l0,2.93-2.62,0,0-2.85a12.45,12.45,0,0,1-6.55-2L111.12,92a10.51,10.51,0,0,0,5.11,1.78l-.06-4.37c-2.92-.67-6.19-1.59-6.24-5.34,0-2.77,1.94-5.19,6.07-5.72l0-2.91,2.62,0,0,2.86A11.86,11.86,0,0,1,124,79.77L122.7,83a10.7,10.7,0,0,0-4-1.31l.07,4.46c2.92.64,6.13,1.56,6.19,5.26C125,94.15,123,96.54,118.9,97.1Zm-2.79-11.55-.06-3.72c-1.38.34-1.92,1.11-1.91,2S115,85.21,116.11,85.55Zm4.6,6.25c0-.91-.78-1.4-1.91-1.78l0,3.62C120.16,93.33,120.72,92.64,120.71,91.8Z" transform="translate(-35.89 -52.36)"/><path class="cls-1" d="M82,195.1a13.63,13.63,0,1,1-15.45-11.49A13.62,13.62,0,0,1,82,195.1Z" transform="translate(-35.89 -52.36)"/><path class="cls-2" d="M78.78,195.57A10.39,10.39,0,1,1,67,186.81,10.38,10.38,0,0,1,78.78,195.57Z" transform="translate(-35.89 -52.36)"/><path class="cls-3" d="M78.73,195.25a6.67,6.67,0,0,1-.45-1.2,11.2,11.2,0,0,0-1.65-3A11.06,11.06,0,0,0,75,189.4a10.37,10.37,0,0,0-2.27-1.4,9.86,9.86,0,0,0-1.35-.5,10.21,10.21,0,0,0-3-.4,10.82,10.82,0,0,0-1.59.15,12.56,12.56,0,0,0-1.55.4,10.82,10.82,0,0,0-1.43.62,9.44,9.44,0,0,0-1.27.8,9.21,9.21,0,0,0-1.1.94,10.21,10.21,0,0,0-1.65,2.1,10.41,10.41,0,0,0-1,2.13,11.21,11.21,0,0,0-.52,3.36,5.61,5.61,0,0,1,0,1.28,3.11,3.11,0,0,1-.29-1.26,9.49,9.49,0,0,1,.28-3.54,10.77,10.77,0,0,1,.93-2.3,10.44,10.44,0,0,1,1.7-2.29,9.51,9.51,0,0,1,1.16-1,9.91,9.91,0,0,1,1.36-.88,10.13,10.13,0,0,1,1.54-.68,10,10,0,0,1,1.67-.44,11.23,11.23,0,0,1,1.72-.16,9.36,9.36,0,0,1,1.68.11,10.33,10.33,0,0,1,1.58.35,9.59,9.59,0,0,1,1.44.57,10.34,10.34,0,0,1,4,3.4A9.64,9.64,0,0,1,78.57,194,3.17,3.17,0,0,1,78.73,195.25Z" transform="translate(-35.89 -52.36)"/><path class="cls-3" d="M70.55,203l.29,1.78-1.6.26L69,203.33a7.67,7.67,0,0,1-4.17-.64l.56-2.09a6.5,6.5,0,0,0,3.28.64l-.43-2.66c-1.84-.15-3.91-.42-4.27-2.71-.27-1.69.72-3.34,3.2-4l-.29-1.77,1.6-.25.28,1.74a7.22,7.22,0,0,1,3.39.45l-.48,2.09a6.71,6.71,0,0,0-2.58-.44l.44,2.71c1.83.14,3.87.41,4.23,2.66C74,200.69,73,202.32,70.55,203Zm-2.72-6.8L67.47,194c-.82.32-1.08.84-1,1.37S67.09,196.12,67.83,196.23Zm3.36,3.41c-.09-.56-.6-.79-1.33-.92l.35,2.2C71,200.62,71.27,200.15,71.19,199.64Z" transform="translate(-35.89 -52.36)"/><rect class="cls-2" x="434.04" y="323.96" width="24.54" height="36.41" transform="translate(-10.56 662.68) rotate(-79.01)"/><path class="cls-3" d="M466.58,333.9a2.72,2.72,0,0,1-.4.26l-1.16.67-4.32,2.45-14.33,8-.12.06-.09-.1L446,345c-4.18-5-8-9.42-10.74-12.69L432,328.41l-.87-1.07a2.33,2.33,0,0,1-.28-.38,2.4,2.4,0,0,1,.33.34l.91,1,3.31,3.81,10.81,12.62.21.25-.2,0,14.38-7.89,4.37-2.36,1.19-.62A2.22,2.22,0,0,1,466.58,333.9Z" transform="translate(-35.89 -52.36)"/><path class="cls-3" d="M426.16,351.05c-.06-.07,3.27-2.85,7.43-6.21s7.59-6,7.65-5.95-3.27,2.85-7.44,6.21S426.22,351.12,426.16,351.05Z" transform="translate(-35.89 -52.36)"/><path class="cls-3" d="M453.17,340.89c.09,0,2.1,3.76,4.51,8.48S462,358,461.9,358s-2.1-3.75-4.51-8.47S453.09,340.93,453.17,340.89Z" transform="translate(-35.89 -52.36)"/><path class="cls-2" d="M354.59,79.22a6.73,6.73,0,0,1-.19-1.63,12.44,12.44,0,0,0-.22-2,20,20,0,0,0-.51-2.63,24.56,24.56,0,0,0-2.73-6.77,25.5,25.5,0,0,0-6.3-7.25,24.9,24.9,0,0,0-10.47-4.88,25.15,25.15,0,0,0-13.16.82,23.6,23.6,0,0,0-6.4,3.26,28.88,28.88,0,0,0-2.88,2.34,27.24,27.24,0,0,0-2.51,2.84,24.89,24.89,0,0,0-.72,29.49,28.19,28.19,0,0,0,2.37,3,29.4,29.4,0,0,0,2.77,2.48,23.43,23.43,0,0,0,6.23,3.57A25.29,25.29,0,0,0,350.31,92a24.66,24.66,0,0,0,3.06-6.63,19.92,19.92,0,0,0,.64-2.6,13.87,13.87,0,0,0,.31-1.94,7.25,7.25,0,0,1,.27-1.62,7.86,7.86,0,0,1,0,1.64,11.22,11.22,0,0,1-.18,2,18.12,18.12,0,0,1-.52,2.68,24.32,24.32,0,0,1-2.92,6.9,26,26,0,0,1-17.82,12,26.23,26.23,0,0,1-13.77-1.4,24.93,24.93,0,0,1-6.58-3.72,31.13,31.13,0,0,1-2.93-2.6,29.16,29.16,0,0,1-2.51-3.11,26.15,26.15,0,0,1,.75-31.12,30.37,30.37,0,0,1,2.66-3,29.42,29.42,0,0,1,3.06-2.46,24.59,24.59,0,0,1,6.75-3.39,26,26,0,0,1,24.68,4.51,25.88,25.88,0,0,1,6.35,7.64,24.16,24.16,0,0,1,2.58,7,18,18,0,0,1,.4,2.7,11,11,0,0,1,.08,2A7.68,7.68,0,0,1,354.59,79.22Z" transform="translate(-35.89 -52.36)"/><path class="cls-2" d="M349.46,63.2c.05.07-.41.48-1.3,1.14l-1.65,1.19c-.33.22-.67.47-1.05.71l-1.27.66a29,29,0,0,1-15.07,3.8l-2.28-.1-2.19-.35c-.36-.06-.72-.1-1.07-.18l-1-.27c-.67-.18-1.34-.34-2-.55a32.89,32.89,0,0,1-6.4-2.94c-3.44-2.08-5.11-4-5-4.09s2,1.42,5.47,3.22A39.19,39.19,0,0,0,321,68c.61.17,1.25.31,1.9.47l1,.25,1,.15,2.09.31,2.18.09A31.31,31.31,0,0,0,343.75,66l1.27-.55c.39-.21.75-.43,1.09-.61l1.75-1C348.83,63.37,349.4,63.12,349.46,63.2Z" transform="translate(-35.89 -52.36)"/><path class="cls-2" d="M308.43,94.37c-.06-.08.41-.48,1.3-1.14L311.38,92c.33-.22.67-.47,1.05-.71l1.26-.66a29,29,0,0,1,15.08-3.8l2.28.1,2.19.35c.36.06.72.1,1.07.17l1,.28c.67.18,1.34.34,2,.54a33.47,33.47,0,0,1,6.4,3c3.43,2.08,5.1,4,5,4.09s-2-1.42-5.46-3.22a39.19,39.19,0,0,0-6.3-2.58c-.61-.17-1.26-.31-1.9-.48l-1-.24-1-.15-2.1-.31-2.17-.09a31.31,31.31,0,0,0-14.6,3.28l-1.28.55c-.39.21-.74.43-1.08.61l-1.75,1C309.06,94.2,308.49,94.45,308.43,94.37Z" transform="translate(-35.89 -52.36)"/><path class="cls-2" d="M354.57,79.81c0,.39-11.5.43-25.65.08S303.29,79,303.3,78.57s11.49-.43,25.65-.08S354.58,79.42,354.57,79.81Z" transform="translate(-35.89 -52.36)"/><path class="cls-2" d="M327.75,104.21c-.39,0-.42-11.49-.08-25.65S328.61,52.94,329,53s.42,11.49.08,25.65S328.14,104.22,327.75,104.21Z" transform="translate(-35.89 -52.36)"/><path class="cls-2" d="M327.75,104.17c-.09.15-2.92-1.77-6.18-6.1A34.72,34.72,0,0,1,317,89.74a30.88,30.88,0,0,1-2-11.48,29.59,29.59,0,0,1,2.59-11.38,35.26,35.26,0,0,1,5-8.06c3.45-4.18,6.3-6,6.4-5.88s-2.45,2.26-5.62,6.49a39.34,39.34,0,0,0-4.6,8,29.56,29.56,0,0,0-2.37,10.88,31.23,31.23,0,0,0,1.8,11,37.15,37.15,0,0,0,4.17,8.19C325.35,101.86,327.89,104,327.75,104.17Z" transform="translate(-35.89 -52.36)"/><path class="cls-2" d="M329.57,53c.1-.15,2.92,1.76,6.18,6.1a34.64,34.64,0,0,1,4.59,8.32,30.9,30.9,0,0,1,2,11.49,29.36,29.36,0,0,1-2.59,11.37,35.56,35.56,0,0,1-5,8.07c-3.45,4.17-6.3,6-6.39,5.87s2.44-2.26,5.61-6.49a38.07,38.07,0,0,0,4.6-8,29.57,29.57,0,0,0,2.37-10.89,31.41,31.41,0,0,0-1.79-11,37.15,37.15,0,0,0-4.18-8.19C332,55.27,329.43,53.11,329.57,53Z" transform="translate(-35.89 -52.36)"/><path class="cls-2" d="M80.64,367.12l1.27-2.82a10.13,10.13,0,0,0-18.58-8.09L62,359.07a5.68,5.68,0,0,0-6.67,3.21L48.1,379A5.68,5.68,0,0,0,51,386.45L68.39,394a5.67,5.67,0,0,0,7.46-2.93l7.26-16.71A5.67,5.67,0,0,0,80.64,367.12ZM66.16,381.9l-4.54-2,2.13-3a3,3,0,1,1,3,1.25C66.54,379.62,66.16,381.9,66.16,381.9Zm12.49-15.68-14.58-6.34,1.26-2.79a7.95,7.95,0,0,1,14.58,6.33Z" transform="translate(-35.89 -52.36)"/><path class="cls-2" d="M435.36,184.82a7.13,7.13,0,1,1-7.14-7.12A7.13,7.13,0,0,1,435.36,184.82Z" transform="translate(-35.89 -52.36)"/><circle class="cls-2" cx="448.18" cy="170.54" r="7.13" transform="translate(57.69 440.99) rotate(-63.15)"/><ellipse class="cls-2" cx="448.22" cy="200.76" rx="7.13" ry="7.76" transform="translate(-36.16 -51.74) rotate(-0.08)"/><path class="cls-2" d="M446.12,199.84c-.31.45-5.05-2.24-10.59-6s-9.79-7.19-9.49-7.64,5,2.25,10.59,6S446.42,199.39,446.12,199.84Z" transform="translate(-35.89 -52.36)"/><path class="cls-2" d="M446.69,170c.33.43-3.33,3.82-8.18,7.58s-9,6.45-9.38,6,3.33-3.82,8.18-7.57S446.36,169.61,446.69,170Z" transform="translate(-35.89 -52.36)"/></g><g id="Graphic"><path class="cls-4" d="M395.4,120.76c.09.11-12.37,10.4-27.82,23s-28.06,22.67-28.15,22.56,12.36-10.39,27.82-23S395.3,120.65,395.4,120.76Z" transform="translate(-35.89 -52.36)"/><path class="cls-4" d="M415.91,288.65c-.05.14-16.17-5.64-36-12.89S344,262.51,344.09,262.38s16.17,5.63,36,12.89S416,288.52,415.91,288.65Z" transform="translate(-35.89 -52.36)"/><path class="cls-4" d="M82.16,150.16c.07-.13,17.44,9,38.78,20.46s38.61,20.81,38.54,20.93-17.43-9-38.78-20.47S82.09,150.28,82.16,150.16Z" transform="translate(-35.89 -52.36)"/><path class="cls-4" d="M88.42,298.61c0-.14,14.22-5.62,31.86-12.24s32-11.88,32.05-11.75-14.21,5.61-31.86,12.24S88.47,298.74,88.42,298.61Z" transform="translate(-35.89 -52.36)"/><path class="cls-5" d="M257.66,328.66a86.82,86.82,0,1,1,86.81-86.82A86.92,86.92,0,0,1,257.66,328.66Zm0-172.63a85.82,85.82,0,1,0,85.81,85.81A85.91,85.91,0,0,0,257.66,156Z" transform="translate(-35.89 -52.36)"/><path class="cls-4" d="M367.41,240.6s0-.6-.07-1.78c0-.59,0-1.32-.07-2.19s0-1.88-.15-3-.2-2.42-.31-3.83-.37-2.94-.58-4.61c-.47-3.32-1.19-7.13-2.23-11.36A109.61,109.61,0,0,0,359.5,200a105.83,105.83,0,0,0-7.63-15.44A111.07,111.07,0,0,0,324,153.43a107.86,107.86,0,0,0-20.93-12.51,106.77,106.77,0,0,0-25.2-7.95,111.36,111.36,0,0,0-42.92.49,117.55,117.55,0,0,0-14.64,4.18,109.8,109.8,0,0,0-50.91,38.18,108.64,108.64,0,0,0-8.93,14.37c-.63,1.28-1.34,2.52-1.9,3.83l-1.77,3.91c-1.06,2.67-2.15,5.34-3,8.09A106.37,106.37,0,0,0,149.63,223a117.42,117.42,0,0,0-1.44,17.62,118.77,118.77,0,0,0,1.43,17.63,106.11,106.11,0,0,0,4.17,16.94c.87,2.76,2,5.43,3,8.1l1.77,3.91c.56,1.32,1.28,2.56,1.91,3.83a107,107,0,0,0,8.92,14.38,109.84,109.84,0,0,0,50.92,38.19A117.21,117.21,0,0,0,235,347.74a111.32,111.32,0,0,0,42.92.49A109.54,109.54,0,0,0,324,327.76a110.86,110.86,0,0,0,27.84-31.15,105.83,105.83,0,0,0,7.63-15.44,109.61,109.61,0,0,0,4.5-13.78c1-4.23,1.76-8,2.23-11.35.21-1.67.44-3.2.58-4.61s.21-2.69.31-3.84.13-2.15.15-3,.05-1.6.07-2.19c0-1.18.07-1.78.07-1.78s0,.6,0,1.78c0,.59,0,1.32,0,2.19s0,1.89-.13,3-.18,2.43-.28,3.84-.35,2.95-.55,4.62c-.46,3.33-1.17,7.14-2.19,11.38a109.59,109.59,0,0,1-4.47,13.82,105.13,105.13,0,0,1-7.61,15.5,111.08,111.08,0,0,1-27.87,31.29A109.48,109.48,0,0,1,278,348.65a109,109,0,0,1-28.36,1.59,107.45,107.45,0,0,1-14.74-2.05A114.74,114.74,0,0,1,220.17,344,110.2,110.2,0,0,1,169,305.67a109,109,0,0,1-9-14.44c-.63-1.28-1.35-2.53-1.92-3.85s-1.18-2.62-1.78-3.93c-1.06-2.68-2.16-5.36-3-8.13a106.16,106.16,0,0,1-4.19-17,109.56,109.56,0,0,1,0-35.41,107.4,107.4,0,0,1,4.2-17c.87-2.77,2-5.45,3-8.13.6-1.31,1.19-2.62,1.78-3.93s1.28-2.56,1.92-3.85a108.52,108.52,0,0,1,9-14.43,110.22,110.22,0,0,1,51.16-38.33A116.44,116.44,0,0,1,234.88,133a112.22,112.22,0,0,1,43.09-.46,106.75,106.75,0,0,1,25.28,8,108,108,0,0,1,21,12.58,111.13,111.13,0,0,1,27.88,31.29,106.13,106.13,0,0,1,7.61,15.5,109.59,109.59,0,0,1,4.47,13.82c1,4.24,1.73,8.06,2.19,11.39.2,1.67.41,3.2.55,4.61s.2,2.7.28,3.85.12,2.15.13,3,0,1.6,0,2.19C367.42,240,367.41,240.6,367.41,240.6Z" transform="translate(-35.89 -52.36)"/><path class="cls-5" d="M259,365.41v-1A126.34,126.34,0,1,0,132.63,238.07h-1c0-70.21,57.13-127.33,127.34-127.33a127.34,127.34,0,0,1,0,254.67Z" transform="translate(-35.89 -52.36)"/><path class="cls-5" d="M257.67,352.84v-5a107.24,107.24,0,1,0,0-214.48v-5a112.24,112.24,0,1,1,0,224.48Z" transform="translate(-35.89 -52.36)"/><path class="cls-5" d="M388.3,238.07h-5a124.34,124.34,0,0,0-248.67,0h-5c0-71.31,58-129.33,129.34-129.33A129.48,129.48,0,0,1,388.3,238.07Z" transform="translate(-35.89 -52.36)"/><path class="cls-5" d="M259.93,384.62c-79.45,0-144.09-64.65-144.09-144.1s64.64-144.1,144.09-144.1v5c-76.69,0-139.09,62.4-139.09,139.1s62.4,139.1,139.09,139.1S399,317.22,399,240.52h5C404,320,339.39,384.62,259.93,384.62Z" transform="translate(-35.89 -52.36)"/><path class="cls-5" d="M257.66,401.53l-2.51,0v-1l2.5,0Z" transform="translate(-35.89 -52.36)"/><path class="cls-5" d="M245,401c-1.67-.13-3.37-.29-5-.48l.11-1c1.66.18,3.35.34,5,.47ZM230,399.13c-1.67-.29-3.35-.61-5-.95l.21-1c1.62.34,3.28.66,4.94.95Zm-14.83-3.33c-1.61-.44-3.25-.92-4.86-1.42l.3-1c1.6.5,3.22,1,4.83,1.42Zm-14.45-4.74c-1.58-.6-3.16-1.24-4.72-1.89l.39-.92c1.54.65,3.12,1.28,4.69,1.88ZM186.73,385c-1.51-.75-3-1.53-4.51-2.33l.47-.88c1.48.79,3,1.57,4.48,2.32Zm-13.29-7.41c-1.43-.89-2.87-1.81-4.26-2.74l.55-.84c1.39.93,2.82,1.85,4.24,2.73Zm-12.51-8.63c-1.34-1-2.68-2.07-4-3.14l.64-.77c1.29,1.05,2.62,2.1,3.95,3.11Zm-11.64-9.78c-1.25-1.15-2.48-2.33-3.67-3.5l.7-.71c1.18,1.16,2.41,2.33,3.65,3.48ZM138.63,348.3c-1.12-1.26-2.24-2.54-3.32-3.83l.77-.64c1.07,1.28,2.18,2.56,3.3,3.81Zm-9.58-11.78c-1-1.37-2-2.75-2.94-4.13l.82-.56c.94,1.36,1.92,2.74,2.92,4.09Zm-8.42-12.64c-.86-1.43-1.72-2.91-2.54-4.38L119,319c.81,1.46,1.66,2.92,2.51,4.35Zm-7.18-13.37c-.73-1.52-1.44-3.07-2.11-4.6l.92-.4c.66,1.52,1.37,3.06,2.09,4.57Zm-5.87-14c-.58-1.58-1.14-3.19-1.66-4.78l1-.32c.52,1.59,1.07,3.19,1.65,4.76ZM103.06,282c-.42-1.63-.82-3.28-1.19-4.92l1-.22c.36,1.63.76,3.27,1.18,4.89ZM100,267.14c-.26-1.65-.5-3.34-.72-5l1-.12c.21,1.66.45,3.34.71,5ZM98.29,252c-.11-1.67-.19-3.38-.24-5.06l1,0c0,1.67.13,3.36.24,5ZM99,236.88l-1,0c.06-1.69.14-3.39.24-5.07l1,.07C99.17,233.51,99.1,235.2,99,236.88Zm1.18-15.06-1-.12c.21-1.67.45-3.36.71-5l1,.16C100.67,218.49,100.43,220.16,100.22,221.82Zm2.6-14.87-1-.22c.37-1.64.77-3.3,1.19-4.92l1,.25C103.58,203.67,103.18,205.32,102.82,207Zm4-14.56-.95-.31c.53-1.6,1.09-3.21,1.66-4.8l.94.34C107.9,189.2,107.34,190.81,106.82,192.39Zm5.4-14.13-.92-.4c.68-1.54,1.39-3.09,2.11-4.62l.91.43C113.59,175.19,112.89,176.73,112.22,178.26Zm6.72-13.55-.87-.48q1.23-2.22,2.54-4.4l.85.52C120.6,161.78,119.75,163.25,118.94,164.71Zm8-12.83-.83-.57c1-1.38,1.95-2.77,2.95-4.13l.8.59C128.85,149.12,127.86,150.5,126.92,151.88Zm9.15-12-.76-.65c1.08-1.28,2.2-2.57,3.32-3.83l.74.67C138.26,137.3,137.15,138.58,136.07,139.86Zm10.25-11.1-.7-.71c1.19-1.17,2.43-2.35,3.66-3.5l.68.74C148.73,126.43,147.51,127.6,146.32,128.76Zm11.25-10.07-.63-.78c1.3-1.06,2.64-2.11,4-3.13l.61.8C160.19,116.59,158.86,117.64,157.57,118.69Zm12.14-9-.55-.83c1.38-.93,2.82-1.85,4.25-2.74l.53.85C172.51,107.89,171.09,108.81,169.71,109.73ZM182.64,102l-.47-.89c1.48-.79,3-1.57,4.49-2.32l.45.9C185.62,100.4,184.12,101.17,182.64,102Zm13.61-6.5-.39-.92c1.55-.65,3.13-1.29,4.69-1.88l.36.93C199.36,94.19,197.79,94.82,196.25,95.47Zm14.17-5.17-.3-1c1.61-.5,3.25-1,4.86-1.43l.27,1C213.64,89.33,212,89.8,210.42,90.3ZM225,86.51l-.2-1c1.65-.35,3.32-.67,5-1l.18,1C228.34,85.85,226.67,86.17,225,86.51Zm14.91-2.38-.11-1c1.67-.19,3.37-.35,5-.48l.08,1C243.29,83.78,241.6,84,239.94,84.13Z" transform="translate(-35.89 -52.36)"/><path class="cls-5" d="M255.16,83.17v-1l2.51,0v1Z" transform="translate(-35.89 -52.36)"/></g><g id="Email"><rect class="cls-5" x="413.27" y="274.32" width="54.46" height="36.71" transform="translate(-41.9 -43.1) rotate(-1.2)"/><path class="cls-4" d="M467.52,274.19a3.18,3.18,0,0,1-.49.5l-1.49,1.36L460,281l-18.44,16.19-.15.13-.16-.12-.39-.3-19.71-15.16c-2.47-1.94-4.49-3.51-5.94-4.64-.66-.54-1.19-1-1.6-1.28a3.21,3.21,0,0,1-.53-.48,4,4,0,0,1,.59.4l1.66,1.2,6,4.52,19.8,15.05.39.3h-.31l18.53-16.08,5.64-4.82,1.55-1.29A5.11,5.11,0,0,1,467.52,274.19Z" transform="translate(-35.89 -52.36)"/><path class="cls-4" d="M413.84,312c-.1-.09,3.89-5.2,8.91-11.43s9.19-11.2,9.3-11.11-3.88,5.2-8.91,11.43S414,312.12,413.84,312Z" transform="translate(-35.89 -52.36)"/><path class="cls-4" d="M450.14,288.65c.1-.08,4.25,4.82,9.26,11s9,11.19,8.89,11.27-4.26-4.82-9.27-11S450,288.74,450.14,288.65Z" transform="translate(-35.89 -52.36)"/></g><g id="Signal"><path class="cls-6" d="M417.29,124.23a4.51,4.51,0,1,1-4.49-4.54A4.51,4.51,0,0,1,417.29,124.23Z" transform="translate(-35.89 -52.36)"/><path class="cls-6" d="M403.76,118.43a12.49,12.49,0,0,1,18.09-.24c2.31,2.32,5.91-1.25,3.61-3.58a17.64,17.64,0,0,0-25.27.21c-2.26,2.36,1.31,6,3.57,3.61Z" transform="translate(-35.89 -52.36)"/><path class="cls-6" d="M388.43,97.42c6.86-5.94,15.05-9.67,24.23-9.69a35.94,35.94,0,0,1,24.72,9.46c2.38,2.23,6-1.33,3.6-3.58a41.26,41.26,0,0,0-28.3-11c-10.56,0-19.94,4.34-27.82,11.16-2.48,2.14,1.11,5.74,3.57,3.61Z" transform="translate(-35.89 -52.36)"/><path class="cls-6" d="M394.48,109.06a24.84,24.84,0,0,1,36.49-.52c2.28,2.34,5.88-1.23,3.6-3.57a29.89,29.89,0,0,0-43.66.48c-2.22,2.4,1.34,6,3.57,3.61Z" transform="translate(-35.89 -52.36)"/></g><g id="GPS"><path class="cls-6" d="M77.9,291.75a21,21,0,1,0-39.12,10.61h0l.06.08c.81,1.36,1.82,2.33,2.84,3.76l12.2,16.16a3.79,3.79,0,0,0,6.05,0l12-15.9a47.22,47.22,0,0,0,3-4l0-.06h0A20.85,20.85,0,0,0,77.9,291.75Zm-21,9.15a9.25,9.25,0,1,1,9.25-9.25A9.25,9.25,0,0,1,56.89,300.9Z" transform="translate(-35.89 -52.36)"/></g><g id="Money"><path class="cls-5" d="M93.65,133.9a27.72,27.72,0,1,1-29.48-25.76A27.68,27.68,0,0,1,93.65,133.9Z" transform="translate(-35.89 -52.36)"/><g class="cls-7"><path d="M87,133.68a12.2,12.2,0,0,1-.72-2.5,22.78,22.78,0,0,0-2.86-6.3,22,22,0,0,0-3-3.65A21.25,21.25,0,0,0,76,118a20.35,20.35,0,0,0-2.67-1.23,19.51,19.51,0,0,0-2.93-.87,21.25,21.25,0,0,0-3.13-.43,22.21,22.21,0,0,0-3.26.06,23.91,23.91,0,0,0-3.21.57,22.54,22.54,0,0,0-3,1,21.58,21.58,0,0,0-2.7,1.42,18.37,18.37,0,0,0-2.38,1.73,21,21,0,0,0-3.67,4,21.57,21.57,0,0,0-2.28,4.16,22.22,22.22,0,0,0-1.58,6.74,12.36,12.36,0,0,1-.23,2.59,6.29,6.29,0,0,1-.4-2.61,19.39,19.39,0,0,1,1.14-7.12A20.77,20.77,0,0,1,48,123.55a21.11,21.11,0,0,1,3.81-4.37,20.26,20.26,0,0,1,2.52-1.9,19.58,19.58,0,0,1,2.9-1.56,21.15,21.15,0,0,1,3.22-1.14,22,22,0,0,1,7-.68,22.2,22.2,0,0,1,3.38.49,21.22,21.22,0,0,1,3.14,1,20.71,20.71,0,0,1,2.84,1.37,22,22,0,0,1,4.59,3.55,21.56,21.56,0,0,1,3.07,4,19.78,19.78,0,0,1,2.5,6.77A6.07,6.07,0,0,1,87,133.68Z" transform="translate(-35.89 -52.36)"/></g><g class="cls-7"><path d="M69.21,148.14l.3,3.67-3.28.26L66,148.51a15.58,15.58,0,0,1-8.37-2l1.48-4.14a13.26,13.26,0,0,0,6.54,1.82l-.44-5.47c-3.71-.59-7.87-1.48-8.24-6.16-.28-3.47,2-6.65,7.12-7.66l-.29-3.63L67,121l.29,3.57a14.89,14.89,0,0,1,6.81,1.46l-1.31,4.16a13.68,13.68,0,0,0-5.15-1.3l.45,5.57c3.7.56,7.79,1.45,8.17,6.06C76.55,144,74.3,147.11,69.21,148.14Zm-4.44-14.2-.38-4.65c-1.7.53-2.31,1.53-2.22,2.62S63.29,133.59,64.77,133.94ZM71,141.37c-.09-1.14-1.09-1.69-2.54-2.07l.36,4.52C70.47,143.33,71.12,142.42,71,141.37Z" transform="translate(-35.89 -52.36)"/></g><path class="cls-4" d="M44.92,137.13c.06,0,.13.92.45,2.56a21.2,21.2,0,0,0,2.54,6.53,22,22,0,0,0,2.92,3.87,22.49,22.49,0,0,0,4.35,3.45,21.15,21.15,0,0,0,5.65,2.35,22.42,22.42,0,0,0,6.54.61,22.72,22.72,0,0,0,6.4-1.46A21.29,21.29,0,0,0,79.06,152a20.75,20.75,0,0,0,6.25-8.21A21.42,21.42,0,0,0,87,136.93c.1-1.66.05-2.59.11-2.59a2.83,2.83,0,0,1,.06.67,15.5,15.5,0,0,1,0,1.93,20.48,20.48,0,0,1-1.52,6.95,22.3,22.3,0,0,1-2.38,4.33,23.05,23.05,0,0,1-3.9,4.11A21.84,21.84,0,0,1,74,155.51a21.12,21.12,0,0,1-13.26.88A21.65,21.65,0,0,1,54.93,154a22.35,22.35,0,0,1-4.41-3.56,22,22,0,0,1-2.93-4,20.48,20.48,0,0,1-2.42-6.69A16,16,0,0,1,45,137.8,2.83,2.83,0,0,1,44.92,137.13Z" transform="translate(-35.89 -52.36)"/></g><g id="Character"><path class="cls-4" d="M77.78,437.64s6.71,4.34,9.82,4.18,15.28-15.3,15.28-15.3l-6.36-4.76-15.64,2.6-3.1,13.14" transform="translate(-35.89 -52.36)"/><path class="cls-4" d="M210.82,216a31.14,31.14,0,0,1-7.07,28.9c-3.21,3.46-7.31,6.28-9.33,10.54-2.25,4.73-1.53,10.28-2.53,15.41s-5.33,10.61-10.41,9.36c4.74,7,12,12.12,19.67,15.63s16,5.57,24.23,7.61c4.58,1.14,9.52,2.25,13.9.5,5.67-2.27,8.48-8.51,10.75-14.18q9.9-24.71,19.79-49.4" transform="translate(-35.89 -52.36)"/><path class="cls-8" d="M278.53,196.32a7.39,7.39,0,0,0-6.77-7.35l-34.88-16c-12.58-1.06-25.15,21.47-25.68,34.09-.58,14,1.24,30.88,3.12,41.29,3.79,20.94,17.91,21.34,17.91,21.34l1.2,33.86,43.77-.07Z" transform="translate(-35.89 -52.36)"/><path class="cls-4" d="M220.38,223.8a2.68,2.68,0,0,0,2.66,2.66,2.58,2.58,0,0,0,2.73-2.48,2.7,2.7,0,0,0-2.66-2.67A2.59,2.59,0,0,0,220.38,223.8Z" transform="translate(-35.89 -52.36)"/><path class="cls-4" d="M216.93,216.65c.3.25,2.41-.09,5.24.54s4.79,1.83,5.12,1.71c.17-.05-.11-.45-1-1a13,13,0,0,0-4.07-1.6,11.45,11.45,0,0,0-4.21-.2C217.13,216.27,216.78,216.53,216.93,216.65Z" transform="translate(-35.89 -52.36)"/><path class="cls-4" d="M247.73,222.41a2.7,2.7,0,0,0,2.65,2.66,2.57,2.57,0,0,0,2.73-2.49,2.7,2.7,0,0,0-2.66-2.66A2.58,2.58,0,0,0,247.73,222.41Z" transform="translate(-35.89 -52.36)"/><path class="cls-4" d="M243.75,218.23c.42.09,2.25-1.38,5.28-2.26s5.53-.71,5.79-1c.12-.14-.35-.39-1.46-.49a13.32,13.32,0,0,0-4.72.57,12,12,0,0,0-4.11,2C243.74,217.74,243.55,218.19,243.75,218.23Z" transform="translate(-35.89 -52.36)"/><path class="cls-4" d="M233.56,237.58c0-.16-1.8-.43-4.73-.75-.74-.06-1.45-.19-1.58-.69a3.74,3.74,0,0,1,.44-2.21c.66-1.8,1.35-3.7,2.07-5.68,2.87-8.09,4.93-14.74,4.61-14.85s-2.92,6.35-5.79,14.44l-2,5.72a4.3,4.3,0,0,0-.32,2.91,1.86,1.86,0,0,0,1.24,1.06,5.1,5.1,0,0,0,1.26.15C231.72,237.77,233.55,237.75,233.56,237.58Z" transform="translate(-35.89 -52.36)"/><path class="cls-9" d="M232.24,269.93a53.42,53.42,0,0,0,28-8.11s-6.16,15.46-27.23,13.95Z" transform="translate(-35.89 -52.36)"/><path class="cls-9" d="M234.19,244.62a7.71,7.71,0,0,1,5.48-3.81,3.32,3.32,0,0,1,3.31,1.74,5.27,5.27,0,0,1-.35,4.83,4.44,4.44,0,0,1-4.35,2.23,7.44,7.44,0,0,1-3.68-2.28,2.63,2.63,0,0,1-.76-1,1.83,1.83,0,0,1,.19-1.53" transform="translate(-35.89 -52.36)"/><path class="cls-4" d="M242.13,239.41c-.47,0-.41,3.13-3.06,5.42s-6,2-6,2.45c0,.2.76.6,2.17.61a7.8,7.8,0,0,0,5-1.88,6.82,6.82,0,0,0,2.36-4.54C242.71,240.16,242.35,239.38,242.13,239.41Z" transform="translate(-35.89 -52.36)"/><path class="cls-4" d="M241.54,204.46c.38.74,3.21,0,6.64,0s6.27.58,6.63-.17c.16-.36-.41-1-1.6-1.66a11,11,0,0,0-5.07-1.11,11.1,11.1,0,0,0-5,1.23C241.92,203.41,241.37,204.1,241.54,204.46Z" transform="translate(-35.89 -52.36)"/><path class="cls-4" d="M214.31,213.14c.65.64,3.11-.1,6.1-.21s5.52.3,6.08-.4c.25-.34-.17-1-1.29-1.59a10,10,0,0,0-5-.95,9.76,9.76,0,0,0-4.83,1.45C214.35,212.14,214,212.83,214.31,213.14Z" transform="translate(-35.89 -52.36)"/><path class="cls-4" d="M300,248.21c-1.82-9.31-7.48-39.17-15.82-54.74s-17.87-21.72-27.13-24a21.17,21.17,0,0,0-20.16,5.08c-4.07,3.81-5.23,14.67-5.23,14.67s22.32,4.42,30.1,16.9c8.93,14.35,11.19,21.61,11.19,21.61l3,7.89s2.37,38.42,1.59,46.05l33.53,12.12C303.89,279,301.84,257.53,300,248.21Z" transform="translate(-35.89 -52.36)"/><path class="cls-4" d="M233.06,189.08s-14.73-.76-19.08,13.69c-2,6.53-2.21,25.54-2.21,25.54s-3.15-15.06-2.66-23.57,4.47-19.35,10.84-25.45c6.19-5.93,11.46-8.76,22.8-8.35,0,0-1.62,3.23-4.42,7.59C236.93,180.71,234.73,181,233.06,189.08Z" transform="translate(-35.89 -52.36)"/><path class="cls-8" d="M272.85,228.86c.12-4.65,5.11-7.87,9.2-5.64,2.24,1.23,4,3.76,3.91,8.7-.24,13.18-13.42,10.23-13.43,9.85S272.7,234.32,272.85,228.86Z" transform="translate(-35.89 -52.36)"/><path class="cls-9" d="M276.64,236.85c.06,0,.23.16.61.35a2.29,2.29,0,0,0,1.72.06c1.4-.48,2.61-2.67,2.71-5a7.43,7.43,0,0,0-.58-3.29,2.66,2.66,0,0,0-1.7-1.8,1.17,1.17,0,0,0-1.36.61c-.18.36-.11.63-.18.65s-.28-.23-.16-.77a1.5,1.5,0,0,1,.53-.82,1.75,1.75,0,0,1,1.28-.31,3.24,3.24,0,0,1,2.36,2.09,7.85,7.85,0,0,1,.73,3.68c-.13,2.66-1.53,5.12-3.45,5.63a2.43,2.43,0,0,1-2.09-.38C276.66,237.17,276.59,236.87,276.64,236.85Z" transform="translate(-35.89 -52.36)"/><path class="cls-6" d="M248,169.05c0,.11-1.51.42-3.78,1.44a18.17,18.17,0,0,0-3.74,2.23,18.46,18.46,0,0,0-3.66,3.84,33.42,33.42,0,0,0-4.27,8.72c-.8,2.37-1.2,3.87-1.28,3.85a4.08,4.08,0,0,1,.18-1.08c.14-.69.4-1.68.75-2.89a30.38,30.38,0,0,1,4.2-8.91,17.9,17.9,0,0,1,3.79-3.91,17.32,17.32,0,0,1,3.88-2.19,13.35,13.35,0,0,1,1.61-.58,9.73,9.73,0,0,1,1.24-.33A4.47,4.47,0,0,1,248,169.05Z" transform="translate(-35.89 -52.36)"/><path class="cls-6" d="M294.18,271s-.05-.09-.12-.27-.17-.49-.29-.84a21.53,21.53,0,0,1-.86-3.29,44.41,44.41,0,0,1,0-12.49c.27-2.63.66-5.49.91-8.57a42.24,42.24,0,0,0-.19-9.82,29.66,29.66,0,0,0-3.7-10.14,41.93,41.93,0,0,0-7.26-9.09c-5.79-5.58-12.55-9.36-18.65-12.68s-11.73-6.19-16.19-9a112.66,112.66,0,0,1-10.21-7.21c-1.16-.91-2-1.65-2.63-2.15l-.66-.59a1.43,1.43,0,0,1-.22-.21s.09.05.25.17l.7.54,2.68,2.08c2.35,1.78,5.8,4.3,10.28,7.06s10.07,5.64,16.23,8.91,12.93,7.1,18.78,12.73a42,42,0,0,1,7.34,9.22,29.8,29.8,0,0,1,3.73,10.31,42,42,0,0,1,.15,9.93c-.27,3.1-.68,6-1,8.58a46.38,46.38,0,0,0-.15,12.42,23.25,23.25,0,0,0,.76,3.29l.24.85A1,1,0,0,1,294.18,271Z" transform="translate(-35.89 -52.36)"/><path class="cls-4" d="M82.64,420.94a3.09,3.09,0,0,1,.79-.51,14.12,14.12,0,0,1,2.35-1,16.41,16.41,0,0,1,15.83,3.27,14.2,14.2,0,0,1,1.77,1.83,3.06,3.06,0,0,1,.52.78c-.07.06-.88-1-2.53-2.33a17.16,17.16,0,0,0-15.49-3.2C83.84,420.37,82.68,421,82.64,420.94Z" transform="translate(-35.89 -52.36)"/><path class="cls-4" d="M97.09,413.49a6.56,6.56,0,0,1,1.83,1.34,18.94,18.94,0,0,1,3.45,4.26,18.47,18.47,0,0,1,2.08,5.07,6.92,6.92,0,0,1,.3,2.25,32.22,32.22,0,0,0-2.83-7.06A31.5,31.5,0,0,0,97.09,413.49Z" transform="translate(-35.89 -52.36)"/><path class="cls-4" d="M173.45,499.27s10.63-51.74,33.14-61.7l89.25-2.63s29.49,19.76,34.21,64.62Z" transform="translate(-35.89 -52.36)"/><path class="cls-3" d="M232.68,279s2.63,16.5,20.28,14.58,24.57-11.9,24.57-11.9l24.54,7.84L305.93,337a209.74,209.74,0,0,0-23,87.84c-.19,5.14-.37,10.76-3.79,14.59-2.11,2.36-5.15,3.65-8.14,4.67a74.3,74.3,0,0,1-58.4-4.81s-7.5-81.22-6.58-83.52,13.2-70.62,13.2-70.62Z" transform="translate(-35.89 -52.36)"/><path class="cls-6" d="M206.59,282.76s-15.6,1.1-19.78,3.19-58.87,70.71-61,71.75c-1.75.88-34.29,31.13-47.73,60.4-2.65,5.78-4.69,14-.34,19.47,0,0,15.69-19.7,25.1-11.05L145,383.83l44-25.67Z" transform="translate(-35.89 -52.36)"/><g class="cls-7"><path d="M222.54,416.86c18.52-35.77,18.52-87.58,9.7-135.17l-7.93,67.62Z" transform="translate(-35.89 -52.36)"/></g><path class="cls-6" d="M182.6,295.3l1.39,58s5.57,64.24,6.62,64.24,4.18,22.64,0,32.75S172.85,474,172.85,474l17.06,18.46s16-25.43,20.9-41.8,18.46-41.1,20.55-87.08,1.23-90.87,1.23-90.87l-13.42,9.71-12.89.27Z" transform="translate(-35.89 -52.36)"/><path class="cls-4" d="M213.48,447.53s0-.19.14-.55.26-.92.45-1.61c.4-1.43,1-3.5,1.7-6.16,1.42-5.37,3.42-13.16,5.29-22.91.93-4.88,1.81-10.25,2.42-16.05.29-2.9.52-5.91.58-9a55.09,55.09,0,0,0-.52-9.53,29.21,29.21,0,0,0-1.14-4.81c-.54-1.59-1-3.2-1.72-4.78l-1-2.4-1.08-2.38c-.69-1.61-1.5-3.18-2.29-4.78-3.2-6.38-6.94-12.76-11-19.16-3.5-5.54-7.09-10.87-10.72-15.9l-.15-.2.19-.15,26.12-21.43.17.4-23,2.64-.46.06.29-.36,15.58-19.09c1.84-2.24,3.27-4,4.26-5.17.48-.58.85-1,1.12-1.34s.39-.45.39-.45-.11.17-.35.48l-1.08,1.37-4.18,5.24-15.45,19.2-.17-.31,23-2.72.77-.1-.6.5L195,327.54l0-.35c3.65,5.05,7.24,10.38,10.75,15.93,4.06,6.41,7.8,12.81,11,19.21.79,1.61,1.59,3.19,2.29,4.8l1.08,2.39c.32.81.65,1.62,1,2.42.67,1.58,1.18,3.22,1.72,4.82a30.86,30.86,0,0,1,1.15,4.88,56.07,56.07,0,0,1,.5,9.61c-.07,3.12-.31,6.14-.61,9.05-.63,5.81-1.54,11.19-2.49,16.07-1.92,9.75-4,17.53-5.45,22.89-.75,2.68-1.37,4.75-1.8,6.14-.21.69-.38,1.21-.5,1.59S213.48,447.53,213.48,447.53Z" transform="translate(-35.89 -52.36)"/><path class="cls-6" d="M277.5,267.45s8.64,13.32,9.54,14.24c0,0,36.5,10.34,38.65,14.69,8.89,17.94,1.71,24.39,0,49-2.12,30.66-12.39,73.31-12.39,73.31s14.45,55.66,16,58.73-49.16,21.72-54.53,14.7-9.6-31.21-9.6-31.21-5-49.12-3.07-68.7,11-39.68,14.2-63.33C279.62,303.94,277.5,267.45,277.5,267.45Z" transform="translate(-35.89 -52.36)"/><path class="cls-4" d="M264,404.53a3.42,3.42,0,0,1,.11-.71l.43-2c.2-.9.44-2,.71-3.21l1.31-4.15A99.16,99.16,0,0,1,277.87,372a143.91,143.91,0,0,1,15.86-19.53c2.25-2.31,4.15-4.1,5.5-5.29.67-.6,1.22-1,1.58-1.34a3.86,3.86,0,0,1,.6-.4s-3,2.62-7.41,7.29a154.53,154.53,0,0,0-15.7,19.56,104,104,0,0,0-11.41,22.27l-1.38,4.11c-.31,1.22-.57,2.28-.79,3.17s-.39,1.5-.52,2A3.47,3.47,0,0,1,264,404.53Z" transform="translate(-35.89 -52.36)"/><path class="cls-4" d="M287,282.31a6.63,6.63,0,0,1,.37.69l1,2c.84,1.8,2,4.31,3.46,7.4.72,1.57,1.51,3.29,2.36,5.12.42.93.86,1.88,1.31,2.86s.94,2,1.32,3.06c1.6,4.27,3.36,9,5.2,13.89,1.45,3.88,2.84,7.62,4.14,11.12l.1.27-.27.06-9.76,2.11.15-.3c2,4.44,3.7,8.13,4.89,10.76l1.33,3,.33.79a.84.84,0,0,1,.1.29,1.94,1.94,0,0,1-.16-.26c-.1-.21-.23-.46-.39-.77l-1.43-2.95L296,330.77l-.11-.24.26-.06,9.74-2.17-.18.32c-1.31-3.49-2.71-7.22-4.16-11.1l-5.17-13.9a32.67,32.67,0,0,0-1.29-3.06c-.44-1-.87-1.94-1.29-2.87-.83-1.84-1.6-3.57-2.3-5.14l-3.3-7.47-.88-2A4.14,4.14,0,0,1,287,282.31Z" transform="translate(-35.89 -52.36)"/><path class="cls-6" d="M311.06,412.51s18.67,18.67,28.28,17.6,22.13-21.87,22.13-29.07-9-53.62-9-53.62l3.73-17.48-35-.66-7,53.8Z" transform="translate(-35.89 -52.36)"/><path class="cls-4" d="M333.78,287.79s0,.13-.13.38l-.42,1.11-.7,1.8c-.3.71-.65,1.51-1,2.42-.81,1.81-1.87,4-3.2,6.47s-3,5.23-5,8.15a96.21,96.21,0,0,1-16.57,18.52,82.32,82.32,0,0,1-11.9,8.65,48.69,48.69,0,0,1-14.64,5.87,33.67,33.67,0,0,1-15.74-.38,27.8,27.8,0,0,1-6.92-3,25.06,25.06,0,0,1-5.54-4.65,57.54,57.54,0,0,1-7.34-11.1c-2-3.66-3.82-7.08-5.35-10.28a75.63,75.63,0,0,1-3.6-8.87,49.77,49.77,0,0,1-1.77-7,31.1,31.1,0,0,1-.48-6.13,2.38,2.38,0,0,1,0,.4c0,.29.05.68.08,1.18a42.85,42.85,0,0,0,.56,4.51A51.79,51.79,0,0,0,236,302.8a79.87,79.87,0,0,0,3.66,8.8c1.55,3.18,3.39,6.59,5.4,10.23a57.55,57.55,0,0,0,7.32,11,24.82,24.82,0,0,0,5.44,4.55,27.17,27.17,0,0,0,6.8,2.92,33.14,33.14,0,0,0,15.49.36,48.26,48.26,0,0,0,14.5-5.8,83,83,0,0,0,11.84-8.57A97.19,97.19,0,0,0,323,307.91c2-2.89,3.65-5.65,5-8.08s2.44-4.62,3.27-6.41l1.09-2.4.75-1.77c.19-.47.35-.83.46-1.09A2.21,2.21,0,0,1,333.78,287.79Z" transform="translate(-35.89 -52.36)"/><path class="cls-4" d="M326.38,289.07a5.33,5.33,0,0,1-.58.64l-1.75,1.78-6.5,6.48-9.65,9.58a39,39,0,0,1-6.31,5,18.94,18.94,0,0,1-8.16,2.91,14.5,14.5,0,0,1-8.5-1.63,10.3,10.3,0,0,1-4.86-6.36,27.92,27.92,0,0,1-.83-7.26c0-2.29.09-4.41.13-6.34a35.05,35.05,0,0,0-.65-9.08,13.08,13.08,0,0,0-.85-2.33,4.42,4.42,0,0,1-.34-.8s.16.25.44.76a11.22,11.22,0,0,1,.95,2.31,33.21,33.21,0,0,1,.81,9.15c0,1.93-.08,4-.06,6.32a28.13,28.13,0,0,0,.86,7.14,9.79,9.79,0,0,0,4.66,6.05,14,14,0,0,0,8.19,1.55,18.34,18.34,0,0,0,7.94-2.83,39.28,39.28,0,0,0,6.25-4.93c1.86-1.75,3.52-3.53,5.17-5.1l4.56-4.41,6.61-6.35,1.82-1.71A4.92,4.92,0,0,1,326.38,289.07Z" transform="translate(-35.89 -52.36)"/><path class="cls-4" d="M193.94,425s0-.09-.05-.28l-.12-.81c-.1-.75-.23-1.79-.4-3.12-.34-2.75-.82-6.67-1.41-11.49-1.18-9.7-2.84-23.1-4.42-37.93-.78-7.42-1.44-14.5-2-20.94s-.91-12.26-1.12-17.14c-.13-2.44-.2-4.65-.26-6.59s-.11-3.62-.12-5,0-2.39,0-3.15v-.82a.9.9,0,0,1,0-.28,1.07,1.07,0,0,1,0,.28c0,.21,0,.48,0,.82,0,.76.07,1.81.12,3.14s.11,3,.21,5,.18,4.14.34,6.58c.26,4.88.7,10.68,1.23,17.12s1.23,13.51,2,20.92c1.58,14.83,3.18,28.24,4.27,37.95.52,4.83.94,8.75,1.24,11.51.13,1.33.23,2.38.3,3.13,0,.34,0,.61.07.82A1,1,0,0,1,193.94,425Z" transform="translate(-35.89 -52.36)"/><path class="cls-4" d="M356.25,329.94l-.17,0h-2.39l-7.19-.07-25.29-.39.24-.19c-1.42,7.52-2.58,16.07-3.46,25.13-1.59,16.6-2.24,31.71-3.06,42.62-.38,5.45-.76,9.86-1,12.91-.16,1.49-.28,2.67-.37,3.5,0,.38-.08.68-.1.91a.16.16,0,1,1-.06,0c0-.24,0-.54.06-.92.06-.84.15-2,.26-3.51.23-3,.55-7.46.88-12.92.73-10.91,1.32-26,2.91-42.64.89-9.07,2.06-17.64,3.51-25.17l0-.19h.2l25.29.57,7.18.21,1.9.07.49,0Z" transform="translate(-35.89 -52.36)"/><circle class="cls-3" cx="311.81" cy="287.52" r="2.74"/><path class="cls-4" d="M350.44,339.88c-.05,0-.06-.24-.19-.64a2.68,2.68,0,0,0-1-1.39,2.54,2.54,0,0,0-4,2,2.54,2.54,0,0,0,4,2,2.72,2.72,0,0,0,1-1.39c.13-.4.14-.65.19-.65s.09.25,0,.7a2.7,2.7,0,0,1-1,1.63,2.92,2.92,0,0,1-2.79.48,3,3,0,0,1,0-5.61,2.92,2.92,0,0,1,2.79.48,2.7,2.7,0,0,1,1,1.63C350.53,339.64,350.47,339.89,350.44,339.88Z" transform="translate(-35.89 -52.36)"/><circle class="cls-3" cx="233.93" cy="371.87" r="2.74"/><path class="cls-4" d="M272.56,424.23a3.73,3.73,0,0,1-.18-.64,2.76,2.76,0,0,0-1-1.39,2.59,2.59,0,0,0-2.41-.32,2.51,2.51,0,0,0,0,4.7,2.59,2.59,0,0,0,2.41-.32,2.78,2.78,0,0,0,1-1.38,3.69,3.69,0,0,1,.18-.65s.09.25,0,.69a2.72,2.72,0,0,1-1,1.64,2.92,2.92,0,0,1-2.79.47,3,3,0,0,1,0-5.6,2.92,2.92,0,0,1,2.79.47,2.72,2.72,0,0,1,1,1.64C272.65,424,272.59,424.23,272.56,424.23Z" transform="translate(-35.89 -52.36)"/><path class="cls-3" d="M278.22,466a2.74,2.74,0,1,1-2.74-2.74A2.74,2.74,0,0,1,278.22,466Z" transform="translate(-35.89 -52.36)"/><path class="cls-4" d="M278.22,466a5.36,5.36,0,0,1-.18-.64,2.76,2.76,0,0,0-1-1.39,2.57,2.57,0,0,0-2.4-.32,2.51,2.51,0,0,0,0,4.7A2.6,2.6,0,0,0,277,468a2.78,2.78,0,0,0,1-1.39,6,6,0,0,1,.18-.65s.09.25,0,.7a2.73,2.73,0,0,1-1,1.63,2.91,2.91,0,0,1-2.79.47,3,3,0,0,1,0-5.6,2.91,2.91,0,0,1,2.79.47,2.72,2.72,0,0,1,1,1.64C278.31,465.73,278.25,466,278.22,466Z" transform="translate(-35.89 -52.36)"/><path class="cls-4" d="M352.52,347.42c0,.14-7.18-.07-16-.48s-16-.85-16-1,7.18.07,16,.47S352.52,347.27,352.52,347.42Z" transform="translate(-35.89 -52.36)"/><path class="cls-3" d="M194.31,401,184,405.1l-22.46-56.18a25.82,25.82,0,1,0-48,19.17L136,424.27l-10.32,4.12-22.45-56.17a36.94,36.94,0,1,1,68.6-27.43Z" transform="translate(-35.89 -52.36)"/><path class="cls-4" d="M194.31,401s-.17-.38-.47-1.11l-1.32-3.26c-1.16-2.86-2.85-7.06-5-12.48s-4.84-12-7.94-19.71l-4.94-12.3c-1.83-4.31-3.3-9.11-6.14-13.48a36.06,36.06,0,0,0-11.55-11.29c-.61-.36-1.21-.75-1.83-1.1l-1.94-.94a39.11,39.11,0,0,0-4.06-1.64c-.68-.26-1.41-.4-2.13-.6a19.62,19.62,0,0,0-2.17-.53,35.12,35.12,0,0,0-4.49-.6,37.65,37.65,0,0,0-9.27.44l-2.31.54-1.16.27c-.38.11-.75.25-1.13.38l-2.28.78c-.75.3-1.47.66-2.22,1a36.52,36.52,0,0,0-15,12.94,39,39,0,0,0-4.44,9.37,36.47,36.47,0,0,0-.17,21.21c1.1,3.48,2.61,6.9,4,10.4,5.58,13.94,11.35,28.37,17.26,43.16.79,2,1.57,3.94,2.35,5.89l-.33-.15L135.93,424l-.15.34q-6.69-16.77-13.07-32.73-3.18-8-6.27-15.7l-3.06-7.66a28.52,28.52,0,0,1-1.82-7.94,26.21,26.21,0,0,1,3.66-15.2c.36-.54.65-1.13,1-1.63l1.16-1.54a27.5,27.5,0,0,1,5.62-5.1c.51-.35,1.07-.64,1.6-1l.81-.47.84-.39a25.83,25.83,0,0,1,7-2.21,27.54,27.54,0,0,1,7.13-.2,26.26,26.26,0,0,1,12.6,5,24.8,24.8,0,0,1,8.07,9.86c.22.47.43.94.64,1.41l.57,1.41,1.11,2.8q1.11,2.76,2.16,5.42c2.83,7.1,5.42,13.62,7.76,19.5l10.75,27.07-.1,0,7.8-3.07,1.91-.75.64-.24-.61.26-1.88.77-7.8,3.17-.08,0,0-.07-10.88-27-7.81-19.47c-.72-1.78-1.44-3.58-2.18-5.43l-1.12-2.79-.57-1.41-.63-1.39a26.83,26.83,0,0,0-3.29-5.28,26.53,26.53,0,0,0-4.68-4.41,25.77,25.77,0,0,0-12.41-4.87,27.06,27.06,0,0,0-7,.2,25.45,25.45,0,0,0-6.85,2.19l-.83.38-.79.47c-.52.31-1.06.6-1.57.95a27.21,27.21,0,0,0-5.51,5l-1.14,1.52a16.66,16.66,0,0,0-1,1.6A25.74,25.74,0,0,0,112,360.31a27.91,27.91,0,0,0,1.8,7.79l3.06,7.66q3.09,7.71,6.28,15.69l13.09,32.72.09.24-.24.1-10.32,4.13-.24.09-.1-.24c-.78-1.95-1.57-3.92-2.35-5.89l-17.25-43.16c-1.37-3.5-2.86-6.9-4-10.45a37.16,37.16,0,0,1,4.69-31,36.83,36.83,0,0,1,15.16-13.09c.75-.33,1.48-.71,2.24-1l2.31-.79c.38-.13.76-.27,1.15-.38l1.18-.28,2.34-.54a38,38,0,0,1,9.37-.43,35.67,35.67,0,0,1,4.54.61c.76.1,1.47.37,2.2.54s1.46.35,2.16.62a37.61,37.61,0,0,1,4.09,1.66l2,1c.63.35,1.23.74,1.85,1.11a36.39,36.39,0,0,1,11.65,11.43c2.86,4.43,4.33,9.26,6.15,13.59s3.38,8.5,4.91,12.36c3.06,7.71,5.7,14.35,7.85,19.78l4.94,12.48c.55,1.42,1,2.5,1.27,3.24Z" transform="translate(-35.89 -52.36)"/><rect class="cls-5" x="113.07" y="375.1" width="104.48" height="85.15" rx="10.01" transform="translate(-179.1 38.82) rotate(-21.79)"/><g class="cls-7"><rect x="113.07" y="375.1" width="104.48" height="85.15" rx="10.39" transform="translate(-179.1 38.82) rotate(-21.79)"/></g><rect class="cls-5" x="108.91" y="378.27" width="96.93" height="85.15" rx="9.98" transform="translate(-180.84 36.11) rotate(-21.79)"/><g class="cls-7"><path d="M167.1,408.88a11.88,11.88,0,1,0-9.82,16.19l5.39,13.49a3.24,3.24,0,0,0,4.21,1.81h0a3.24,3.24,0,0,0,1.81-4.22l-5.39-13.49A11.84,11.84,0,0,0,167.1,408.88Z" transform="translate(-35.89 -52.36)"/></g><path class="cls-4" d="M215.27,434.94c-.13.06-5.68-13.69-12.4-30.7s-12.05-30.85-11.92-30.9,5.69,13.69,12.41,30.71S215.41,434.89,215.27,434.94Z" transform="translate(-35.89 -52.36)"/><path class="cls-4" d="M166.26,423.79a19.24,19.24,0,0,0,2.83-3.74,14.57,14.57,0,0,0,1.59-4.79A13.08,13.08,0,0,0,167,403.9a14.31,14.31,0,0,0-4.09-3,19.41,19.41,0,0,0-4.48-1.4,4.45,4.45,0,0,1,1.28.07,12.78,12.78,0,0,1,3.36,1,13.79,13.79,0,0,1,6.3,19.62,12.7,12.7,0,0,1-2.15,2.76A4,4,0,0,1,166.26,423.79Z" transform="translate(-35.89 -52.36)"/><path class="cls-10" d="M166.73,374c.06.13-11.95,5.24-26.81,11.41s-27,11.07-27,10.93,12-5.24,26.81-11.41S166.68,373.9,166.73,374Z" transform="translate(-35.89 -52.36)"/><path class="cls-10" d="M147,423.79s-.29-.14-.73-.5a12,12,0,0,1-1.69-1.75,13.33,13.33,0,0,1-1-15.14,12,12,0,0,1,1.44-1.95c.4-.41.64-.61.67-.59s-.83,1-1.79,2.72a13.71,13.71,0,0,0,.95,14.74C146.09,423,147.11,423.72,147,423.79Z" transform="translate(-35.89 -52.36)"/><path class="cls-10" d="M153.49,427.28c0,.14-.78.13-1.69,0s-1.63-.39-1.61-.53.78-.13,1.7,0S153.52,427.14,153.49,427.28Z" transform="translate(-35.89 -52.36)"/><path class="cls-10" d="M121.24,327.53s-.63.36-1.76,1a34,34,0,0,0-4.51,3.11A32,32,0,0,0,103.85,364a35.06,35.06,0,0,0,1.65,5.23,19.56,19.56,0,0,1,.77,1.87,2.35,2.35,0,0,1-.28-.45c-.15-.31-.41-.74-.67-1.34a29.32,29.32,0,0,1-1.83-5.22,31.51,31.51,0,0,1,11.25-32.73,28.84,28.84,0,0,1,4.65-3c.57-.32,1-.5,1.36-.65A1.89,1.89,0,0,1,121.24,327.53Z" transform="translate(-35.89 -52.36)"/><path class="cls-10" d="M109.35,381.09a9,9,0,0,1-1.37-2.78,9.12,9.12,0,0,1-.87-3,18.76,18.76,0,0,1,2.24,5.76Z" transform="translate(-35.89 -52.36)"/><g class="cls-7"><path d="M184.17,322c-4.49,12.86-2.28,27.3,2.72,40C186.89,362,184.28,335.45,184.17,322Z" transform="translate(-35.89 -52.36)"/></g><g class="cls-7"><path d="M262.78,415.81c5-11.18,9.92-22.39,16.29-32.82s14-20.35,23.75-27.67c2.65-2,7.58-5.73,7.58-5.73s-1.32-2.49-2.62-4.56c-1.51-2.4-4-6.57-5.33-8.62l5.85,1.17s-4-9.22-3.89-8.6a77.33,77.33,0,0,1-7.92,1.63c2,4.91,4.22,9.33,6.27,14.24-11,8.74-20,19.75-27.53,31.39s-12.77,25.16-12.5,39" transform="translate(-35.89 -52.36)"/></g><path class="cls-3" d="M283.69,240.32c.14-.1.45,0,.79.4a3.24,3.24,0,0,1,.69,2.11,4.15,4.15,0,0,1-.35,1.61A4.05,4.05,0,0,1,283.6,246a4.45,4.45,0,0,1-7.15-2.7,4.18,4.18,0,0,1,.11-2,4,4,0,0,1,.8-1.43,3.26,3.26,0,0,1,1.92-1.13c.52-.08.81.06.85.22.09.36-.78.83-1.25,1.95a2.42,2.42,0,0,0-.09,1.8,2.39,2.39,0,0,0,4.55-.12C283.73,241.46,283.39,240.53,283.69,240.32Z" transform="translate(-35.89 -52.36)"/><path class="cls-8" d="M103.11,454.05s3.41,11,5.17,13.21,13.53,3.4,13.53,3.4Z" transform="translate(-35.89 -52.36)"/><path class="cls-8" d="M117.21,436.59l6.52,5.24,19.38,14.94s-.11,3.59-4.48,2.77c-3.53-.66-11.38-5-11.38-5s9.22,8.67,9.54,12.71V468a3.52,3.52,0,0,1-1,2.4h0l-10.77-7.2s2.3,4.06,4.57,8.28a5.18,5.18,0,0,1-.73,5.14h0l-24-20.13-.16-15,12.46-4.9" transform="translate(-35.89 -52.36)"/><path class="cls-9" d="M114.66,446a3.35,3.35,0,0,1,.9.21c.27.1.6.25,1,.42s.8.41,1.25.68c1.82,1.07,4.14,2.83,6.69,4.74a59.34,59.34,0,0,0,6.76,4.55c1.82,1,3.07,1.37,3,1.47a3.27,3.27,0,0,1-.9-.21,6.64,6.64,0,0,1-1-.36,13.58,13.58,0,0,1-1.3-.58,44.9,44.9,0,0,1-6.9-4.45c-2.56-1.92-4.83-3.71-6.57-4.85l-1.2-.74-.93-.49A2.61,2.61,0,0,1,114.66,446Z" transform="translate(-35.89 -52.36)"/><path class="cls-9" d="M112.46,453.28a10.7,10.7,0,0,1,2.06,1.28c1.22.86,2.88,2.1,4.65,3.54s3.32,2.81,4.41,3.84a10.31,10.31,0,0,1,1.68,1.75,12.06,12.06,0,0,1-1.92-1.48l-4.5-3.71-4.54-3.64A11.49,11.49,0,0,1,112.46,453.28Z" transform="translate(-35.89 -52.36)"/><path class="cls-8" d="M80.08,434.94c-.17.2.09.56.25.9,2.61,5.45,25,20.93,25,20.93L117.58,436s8.87,4.29,12.51,3.3c3-.81,8.63-1.43,6-6.68,0,0-12.5-2.3-16.76-4.13s-6.9-2.78-6.9-2.78A60.07,60.07,0,0,1,98,424.23S90.46,423.17,80.08,434.94Z" transform="translate(-35.89 -52.36)"/><path class="cls-9" d="M128.29,476.1a26.86,26.86,0,0,1-2.84-2.21l-6.73-5.46c-2.63-2.13-5-4.11-6.64-5.58-.83-.74-1.5-1.35-1.94-1.78s-.69-.68-.66-.71a28.69,28.69,0,0,1,2.84,2.21l6.73,5.46c2.63,2.13,5,4.11,6.64,5.58.83.74,1.49,1.35,1.94,1.78A3.4,3.4,0,0,1,128.29,476.1Z" transform="translate(-35.89 -52.36)"/><path class="cls-3" d="M338.15,254.24l7.71,1.22.93-5.89-3-.47.42-2.68-2.78-.44.37-2.36,3.21.51.32-2-5.14-.81q.06-.4.12-.78l-.12.78h0l.12-.78a1.84,1.84,0,0,0-1.67-2,1.88,1.88,0,0,0-2,1.67l-4.5,28.57-1.2,7.62a10,10,0,0,0-3.18,19.37,9.72,9.72,0,0,0,1.91.49A10,10,0,0,0,334.58,277q1.73-11,3.46-22h0Zm.43,33.29A7.43,7.43,0,1,1,332.4,279h0A7.43,7.43,0,0,1,338.58,287.53Z" transform="translate(-35.89 -52.36)"/><path class="cls-11" d="M338.15,254.24l7.71,1.22.93-5.89-3-.47.42-2.68-2.78-.44.37-2.36,3.21.51.32-2-5.14-.81q.06-.4.12-.78l-.12.78h0l.12-.78a1.84,1.84,0,0,0-1.67-2,1.88,1.88,0,0,0-2,1.67l-4.5,28.57-1.2,7.62a10,10,0,0,0-3.18,19.37,9.72,9.72,0,0,0,1.91.49A10,10,0,0,0,334.58,277q1.73-11,3.46-22h0Zm.43,33.29A7.43,7.43,0,1,1,332.4,279h0A7.43,7.43,0,0,1,338.58,287.53Z" transform="translate(-35.89 -52.36)"/><path class="cls-4" d="M338.58,287.53a9.65,9.65,0,0,0-.32-3.14,7.41,7.41,0,0,0-1.83-3.06,7.28,7.28,0,0,0-4.07-2.07l.13-.43h0l1.55.68-1.68-.25a7.19,7.19,0,0,0-7.48,10.41,7.12,7.12,0,0,0,2.9,3,7.21,7.21,0,0,0,6.91.08,7.4,7.4,0,0,0,3.3-3.5,18.17,18.17,0,0,0,.59-1.72,1.35,1.35,0,0,1,0,.48,6.22,6.22,0,0,1-.36,1.32,7.52,7.52,0,0,1-6.7,4.69,7.63,7.63,0,0,1-3.93-.93,7.48,7.48,0,0,1-3.12-3.18A7.64,7.64,0,0,1,327,280a7.71,7.71,0,0,1,5.42-1.16l-.12.42h0l-1.63-.73,1.75.31a7.52,7.52,0,0,1,4.26,2.26,7.44,7.44,0,0,1,1.82,3.24,7,7,0,0,1,.22,2.38A3,3,0,0,1,338.58,287.53Z" transform="translate(-35.89 -52.36)"/><path class="cls-4" d="M338.15,254.24s0,.24-.08.72h0c-.28,2.17-1.49,10.17-3.31,22l-.12-.19a10.21,10.21,0,0,1,4.75,15.78,10.23,10.23,0,0,1-13.52,2.53,10.25,10.25,0,0,1,4-18.88c.36-.06.74-.06,1.1-.09l-.25.22c1.27-8.08,2.5-15.87,3.66-23.18.57-3.64,1.13-7.17,1.67-10.55.14-.85.27-1.69.4-2.51a2.11,2.11,0,0,1,1.86-1.79,2.05,2.05,0,0,1,2.13,1.34,2.16,2.16,0,0,1,0,1.28l-.05.29v.07h0c-.19,0,.43.08-.43-.06v-.05l0-.15.09-.57.43.06-.13.78-.17-.24,5.13.82.2,0,0,.2c-.11.72-.22,1.38-.32,2l0,.19-.2,0-3.21-.51.21-.16c-.13.85-.25,1.61-.37,2.36l-.15-.21,2.78.45.17,0,0,.16c-.16,1-.3,1.85-.43,2.68l-.13-.18,3,.48.15,0,0,.14c-.36,2.24-.68,4.19-1,5.88l0,.11h-.1l-5.7-1-1.48-.26c-.34-.06-.52-.11-.52-.11l.49.06,1.46.2,5.78.85-.12.09c.25-1.69.55-3.65.89-5.9l.12.17-3-.46-.16,0,0-.16c.12-.83.26-1.69.41-2.68l.14.19-2.79-.42-.17,0,0-.18c.12-.74.24-1.5.37-2.35l0-.19.19,0,3.21.5-.22.16.31-2,.17.23-5.14-.79-.21,0,0-.22.12-.77.43.07-.09.57,0,.15v0c-.86-.14-.24,0-.43-.08h0v-.08l.05-.29a1.77,1.77,0,0,0,0-1.05,1.61,1.61,0,0,0-3.12.37c-.13.82-.26,1.66-.4,2.5-.52,3.38-1.07,6.91-1.64,10.56-1.15,7.3-2.37,15.09-3.64,23.18l0,.2-.22,0c-.34,0-.69,0-1,.09a9.73,9.73,0,0,0-3.79,17.93,9.72,9.72,0,0,0,7.08,1.27,9.88,9.88,0,0,0,5.81-3.65,9.83,9.83,0,0,0-4.51-15.16l-.14-.06,0-.14c1.9-11.84,3.21-19.82,3.61-22l.06,0H338C338.1,254.44,338.15,254.24,338.15,254.24Z" transform="translate(-35.89 -52.36)"/><path class="cls-8" d="M321.17,283.22,333.51,280l6.43.83a3.45,3.45,0,0,1,2.7,2l4.16,9s6,5,5.32,8-6.27,29.91-6.27,29.91l-16.56-.5a22.74,22.74,0,0,1-5-12.58c-.19-3.78,1.25-6.09.9-8.09-.24-1.37.61-3.81,1-5.68l.51-1.82-1.11.52a3.34,3.34,0,0,1-4.77-2.51l0-.29h0A7.58,7.58,0,0,1,323,293l6.25-6.14S322.41,290.86,321.17,283.22Z" transform="translate(-35.89 -52.36)"/><path class="cls-9" d="M342.2,298.26a5.56,5.56,0,0,1-1.14-.14l-3.08-.55-4.54-.88c-.86-.15-1.76-.38-2.66-.46a2.87,2.87,0,0,0-2.48.79,5.6,5.6,0,0,0-1.05,2.56q-.28,1.38-.57,2.67a28.06,28.06,0,0,0-.8,4.51,3.09,3.09,0,0,0,1.19,2.61,3.48,3.48,0,0,0,1,.43.73.73,0,0,1-.3,0,1.83,1.83,0,0,1-.83-.28,3.25,3.25,0,0,1-1.45-2.77,25.47,25.47,0,0,1,.7-4.62c.18-.86.36-1.75.54-2.68a6,6,0,0,1,1.17-2.8,3.34,3.34,0,0,1,2.9-.95c1,.09,1.86.34,2.72.5l4.52,1,3,.72A4.16,4.16,0,0,1,342.2,298.26Z" transform="translate(-35.89 -52.36)"/><path class="cls-9" d="M335.76,311.93s0,.52-.62,1a2.25,2.25,0,0,1-1.37.38A6.73,6.73,0,0,1,332,313a7,7,0,0,1-3.95-2.69,6.26,6.26,0,0,1-.08-5.78,11.07,11.07,0,0,1,1.54-2.65,3,3,0,0,1,1.25-.89,3.2,3.2,0,0,1,1.46-.11,23,23,0,0,1,4.55,1.45,23.45,23.45,0,0,1,2.85,1.45,4.29,4.29,0,0,1,1,.67c0,.08-1.47-.8-3.95-1.78a24.92,24.92,0,0,0-4.47-1.31,2.68,2.68,0,0,0-1.23.1,2.41,2.41,0,0,0-1,.75,11.22,11.22,0,0,0-1.45,2.52,5.84,5.84,0,0,0,0,5.33,6.82,6.82,0,0,0,3.65,2.59,7,7,0,0,0,1.72.4,2.15,2.15,0,0,0,1.25-.26A2,2,0,0,0,335.76,311.93Z" transform="translate(-35.89 -52.36)"/><path class="cls-9" d="M335.6,310.14c0,.06-.29.22-.84.29a3.83,3.83,0,0,1-2.12-.41,3.88,3.88,0,0,1-1.56-1.49c-.27-.49-.31-.83-.25-.86s.67,1.19,2.05,1.89A8.3,8.3,0,0,0,335.6,310.14Z" transform="translate(-35.89 -52.36)"/><path class="cls-9" d="M336.81,313.49c-.08.11-.86-.35-1.43-1.29s-.62-1.83-.48-1.85.41.74.93,1.58S336.9,313.37,336.81,313.49Z" transform="translate(-35.89 -52.36)"/><path class="cls-9" d="M336.47,322.65a7.89,7.89,0,0,1-1-4.53,8,8,0,0,1,1.25-4.46,30.79,30.79,0,0,0-.73,4.48A30.48,30.48,0,0,0,336.47,322.65Z" transform="translate(-35.89 -52.36)"/><path class="cls-9" d="M336.16,314.46a11.7,11.7,0,0,0-6.5,6.36,2.8,2.8,0,0,1,.33-1.38,8.56,8.56,0,0,1,4.79-4.68A2.81,2.81,0,0,1,336.16,314.46Z" transform="translate(-35.89 -52.36)"/><path class="cls-9" d="M331.09,293.87c.14,0,.23.51.06,1.1s-.51,1-.63.89,0-.51.13-1S330.94,293.86,331.09,293.87Z" transform="translate(-35.89 -52.36)"/><path class="cls-9" d="M345.78,294.05a14.48,14.48,0,0,1-2.47-1.31c-1.49-.87-3.53-2.1-5.77-3.48a18,18,0,0,0-3.24-1.69,7.38,7.38,0,0,0-2.88-.51,6.59,6.59,0,0,0-2.61.73s.17-.23.59-.49a5,5,0,0,1,2-.6,7.1,7.1,0,0,1,3.07.42,17.49,17.49,0,0,1,3.34,1.69c2.24,1.39,4.25,2.67,5.69,3.62A14.12,14.12,0,0,1,345.78,294.05Z" transform="translate(-35.89 -52.36)"/><path class="cls-4" d="M338.15,254.59a42.1,42.1,0,0,1,.74-6.76,45.16,45.16,0,0,1,1.25-6.69,45,45,0,0,1-.74,6.76A45.16,45.16,0,0,1,338.15,254.59Z" transform="translate(-35.89 -52.36)"/><g class="cls-7"><path d="M340.14,241.46a16.23,16.23,0,0,1-1.92,12.45c.71-3.65,1.44-8.59,1.92-12.45" transform="translate(-35.89 -52.36)"/></g></g><g id="Plant"><path class="cls-5" d="M452.34,422.21a19.24,19.24,0,0,0-31.53,7.57l2.28,8.82c.87-3,2.73-5.91,5.6-7.15s6.45-.55,9.51.56,6.06,2.59,9.31,2.79,6.91-1.34,7.88-4.44C456.3,427.44,454.54,424.33,452.34,422.21Z" transform="translate(-35.89 -52.36)"/><g class="cls-7"><path d="M452.34,422.21a19.24,19.24,0,0,0-31.53,7.57l2.28,8.82c.87-3,2.73-5.91,5.6-7.15s6.45-.55,9.51.56,6.06,2.59,9.31,2.79,6.91-1.34,7.88-4.44C456.3,427.44,454.54,424.33,452.34,422.21Z" transform="translate(-35.89 -52.36)"/></g><path class="cls-5" d="M397.36,451.64c-4.76-4.52-4.52-12.4-2.15-18.53s7.57-10.83,13.36-13.93a42.31,42.31,0,0,1,36.87-1.2,17.51,17.51,0,0,0-14.15,8.31c-2.61,4.34-3.19,9.6-5.35,14.18a22.3,22.3,0,0,1-28.58,11.17" transform="translate(-35.89 -52.36)"/><path class="cls-5" d="M395.07,424.45c-5.27-6.23-6-16.22-5.2-24.35s2.66-16.29,1.38-24.35c-.76-4.78-2.61-9.34-3.23-14.13s.26-10.22,4-13.31c4.27-3.56,11-2.72,15.43.62s7,8.59,8.9,13.82c4.13,11.48,5.65,24.22,2.25,35.95s-11.35,22.21-23,25.75" transform="translate(-35.89 -52.36)"/><path class="cls-4" d="M392.54,475.54a5.72,5.72,0,0,1,0-.72c0-.47,0-1.16,0-2.06.07-1.78.24-4.37.64-7.54a99.58,99.58,0,0,1,2-11,50.81,50.81,0,0,1,5-12.79,53.58,53.58,0,0,1,8.23-11,52.63,52.63,0,0,1,8.64-7.18c1.31-.91,2.59-1.6,3.69-2.24s2.1-1.07,2.91-1.46l1.9-.8a3.22,3.22,0,0,1,.67-.25,5.64,5.64,0,0,1-.64.33l-1.86.87c-.79.41-1.76.92-2.87,1.52s-2.33,1.37-3.63,2.29a54.05,54.05,0,0,0-16.66,18.15c-4.85,8.48-6.18,17.4-7.14,23.65-.44,3.16-.66,5.73-.78,7.51-.05.86-.09,1.55-.12,2.05A3.76,3.76,0,0,1,392.54,475.54Z" transform="translate(-35.89 -52.36)"/><path class="cls-5" d="M347,399.89c-9.76,5.89-9.72,11.25-8.1,16.3s7.62,8.58,12.59,6.68c2.81-1.07,4.84-3.51,6.58-6s3.37-5.08,5.8-6.84a8.6,8.6,0,0,1,5.82-1.66Z" transform="translate(-35.89 -52.36)"/><g class="cls-7"><path d="M347,399.89c-9.76,5.89-9.72,11.25-8.1,16.3s7.62,8.58,12.59,6.68c2.81-1.07,4.84-3.51,6.58-6s3.37-5.08,5.8-6.84a8.6,8.6,0,0,1,5.82-1.66Z" transform="translate(-35.89 -52.36)"/></g><path class="cls-5" d="M339.58,406.61c2.55-3.52,8.86-4.55,12.84-2.79s6.9,5.25,9.51,8.74,5.15,7.16,8.76,9.58,8.67,3.3,12.27.86a10.53,10.53,0,0,0,4.17-7.22,24,24,0,0,0-.58-8.51c-.86-4.09-2.26-8.36-5.54-11-3.65-2.89-8.71-3-13.37-2.88-5.35.18-10.77.58-15.79,2.43s-10.14,5.85-12.27,10.76" transform="translate(-35.89 -52.36)"/><path class="cls-4" d="M384.43,467.72s0-.07,0-.21l0-.63c0-.59-.05-1.4-.08-2.42-.06-2.14-.15-5.18-.26-8.91s-.27-8.24-.54-13.2-.65-10.43-1.4-16.11a51.05,51.05,0,0,0-1.62-8.18A43.46,43.46,0,0,0,373.71,405a39.22,39.22,0,0,0-4.12-4.52,30.19,30.19,0,0,0-7.31-5c-.47-.22-.89-.43-1.26-.58l-1-.37-.58-.24c-.13-.06-.2-.09-.19-.1l.2.06.6.19,1,.34c.38.14.8.34,1.29.55a29.62,29.62,0,0,1,7.44,4.9,38.81,38.81,0,0,1,4.19,4.53,40.23,40.23,0,0,1,3.85,6,42.88,42.88,0,0,1,3,7.22,50.29,50.29,0,0,1,1.64,8.24c.76,5.71,1.11,11.17,1.37,16.14s.37,9.46.45,13.22.11,6.81.12,8.91v2.43c0,.25,0,.46,0,.63A.85.85,0,0,1,384.43,467.72Z" transform="translate(-35.89 -52.36)"/><path class="cls-4" d="M387.94,472.13a29.11,29.11,0,0,1-1.07-4.19,44.11,44.11,0,0,1-.44-11.77,77.8,77.8,0,0,1,3.72-17.09c2-6.28,4.72-13,7-20.21a92.79,92.79,0,0,0,2.8-10.69A96.91,96.91,0,0,0,401.38,398a150.38,150.38,0,0,0,.31-17.44c-.17-5-.43-9-.6-11.77-.08-1.37-.14-2.44-.19-3.2,0-.35,0-.62,0-.83v-.29a1,1,0,0,1,.05.28c0,.21,0,.49.08.83.06.76.15,1.83.27,3.2.22,2.77.53,6.79.74,11.76a143.29,143.29,0,0,1-.22,17.5,95.52,95.52,0,0,1-1.37,10.25,93,93,0,0,1-2.8,10.74c-2.33,7.24-5.06,13.95-7.08,20.21a80.08,80.08,0,0,0-3.8,17,45.64,45.64,0,0,0,.31,11.72c.24,1.37.46,2.43.65,3.13.09.34.15.61.2.81A1.26,1.26,0,0,1,387.94,472.13Z" transform="translate(-35.89 -52.36)"/><polygon class="cls-6" points="382.53 417.3 324.32 417.3 323 406.1 382.53 406.1 382.53 417.3"/><polygon class="cls-6" points="330.57 416.03 337.85 449.64 369.48 449.64 376.29 416.03 330.57 416.03"/><path class="cls-6" d="M418.41,469.67c0,.15-12.79.24-28.57.19s-28.59-.2-28.59-.35,12.8-.25,28.59-.2S418.42,469.51,418.41,469.67Z" transform="translate(-35.89 -52.36)"/><path class="cls-10" d="M409,484a27.49,27.49,0,0,0-5.26-3.11,19.53,19.53,0,0,0-6.39-1.53,20.64,20.64,0,0,0-7.91,1.39,70,70,0,0,1-7.81,2.55,19.68,19.68,0,0,1-6.73,0,15.25,15.25,0,0,1-4.33-1.36,8.81,8.81,0,0,1-1.05-.66c-.22-.17-.34-.26-.32-.28s.51.3,1.47.74A16.83,16.83,0,0,0,375,483a20.36,20.36,0,0,0,6.57-.13,81.14,81.14,0,0,0,7.73-2.57,20.49,20.49,0,0,1,8.12-1.38,19.68,19.68,0,0,1,10.4,4,10.67,10.67,0,0,1,.93.81C408.91,483.9,409,484,409,484Z" transform="translate(-35.89 -52.36)"/><path class="cls-4" d="M418.93,469.71c0,.16-13.09.28-29.24.28s-29.24-.12-29.24-.28,13.09-.27,29.24-.27S418.93,469.56,418.93,469.71Z" transform="translate(-35.89 -52.36)"/></g></svg>